# xmcd
#
# Track frame offsets: 
#        150
#        13325
#        27549
#        40895
#        55267
#        67669
#        80474
#        92613
#        105874
#        118354
#        130688
#        144489
#        159167
#        171556
#        182875
#        193479
#        206737
#        217381
#        228715
#        240900
#        252746
#        264173
#        274875
#        286294
#        307775
#
# Disc length: 4174 seconds
#
# Revision: 0
# Processed by: cddbd v1.5.2PL0 Copyright (c) Steve Scherf et al.
# Submitted via: ExactAudioCopy v0.95a3
#
DISCID=74104c19
DTITLE=T-Bone Walker - T-Bone Jumps Again
DYEAR=2002
DGENRE=Blues
TTITLE0=My Baby Left Me
TTITLE1=Come Back To Me Baby Blues
TTITLE2=She Is Going To Ruin Me
TTITLE3=I Cant't Stand Being Away From You
TTITLE4=No Worry Blues
TTITLE5=Don't Leave Me Baby
TTITLE6=Bobby Sox Baby
TTITLE7=I'm Gonna Find My Baby
TTITLE8=I Know Your Wig Is Gone
TTITLE9=T-Bone Jumps Again
TTITLE10=Call It Stormy Monday (But Tuesday's Just As Bad)
TTITLE11=She Had To Let Me Down
TTITLE12=Glamour Girl
TTITLE13=Strollin' With Bone
TTITLE14=The Sun Went Down
TTITLE15=You Don't Love Me
TTITLE16=Travelin' Blues
TTITLE17=The Hustle Is On
TTITLE18=Baby Broke My Heart
TTITLE19=Evil Hearted Woman
TTITLE20=When The Sun Goes Down
TTITLE21=Pony Tail
TTITLE22=Wanderin' Hesrt
TTITLE23=I'll Always Be In Love With You
TTITLE24=Data
EXTD=
EXTT0=
EXTT1=
EXTT2=
EXTT3=
EXTT4=
EXTT5=
EXTT6=
EXTT7=
EXTT8=
EXTT9=
EXTT10=
EXTT11=
EXTT12=
EXTT13=
EXTT14=
EXTT15=
EXTT16=
EXTT17=
EXTT18=
EXTT19=
EXTT20=
EXTT21=
EXTT22=
EXTT23=
EXTT24=
PLAYORDER=
